<svg xmlns="http://www.w3.org/2000/svg" xmlns:xlink="http://www.w3.org/1999/xlink" width="152.98" height="45.504" viewBox="0 0 152.98 45.504"><defs><clipPath id="a"><rect width="152.98" height="45.504" fill="none"/></clipPath></defs><g clip-path="url(#a)"><path d="M1286.559,67.183a66.736,66.736,0,0,0-4.867-7.929,70.861,70.861,0,0,0-4.906-6.531c-.709-.837-2.035,1.706-2.34,2.2-.6.961-1.327,2.347-.514,3.4,1.244,1.614,2.5,3.22,3.7,4.867a47.972,47.972,0,0,1,4.36,7,27.991,27.991,0,0,1,1.166,2.715,16.672,16.672,0,0,1,.89,3.5,8.134,8.134,0,0,1-1.594,6.532,7.611,7.611,0,0,1-3.831,2.59,9.3,9.3,0,0,0,5.989-1.988c1.674-1.309,3.7-3.855,3.86-8.558,0-.045,0-.089,0-.133a16.826,16.826,0,0,0-1.914-7.662" transform="translate(-1148.05 -47.375)" fill="#00acc4"/><path d="M1225.5,126.382c-1.621-1.944-3.141-3.971-4.773-5.905-.911-1.08-1.122-1.027-1.8.285a36.67,36.67,0,0,0-3.964,11.911c-.051.374-.083.745-.106,1.113a11.638,11.638,0,0,0,.382,3.92,9.558,9.558,0,0,0,2.217,3.923,14.068,14.068,0,0,0,2.941,2.4c-.044-.107-.09-.217-.125-.326a9.734,9.734,0,0,1,.072-5.561,25,25,0,0,1,2.014-5.056,39.429,39.429,0,0,1,2.992-4.855.114.114,0,0,0,.011-.015c.009-.015.018-.035.03-.053.35-.6.695-1.077.108-1.781" transform="translate(-1095.096 -107.919)" fill="#c0d84d"/><path d="M1282.955,216.006q-.37-.752-.748-1.5-.392-.774-.8-1.537c-.578-1.08-.7-1.119-1.469-.074-.822,1.1-1.6,2.2-2.3,3.341a20.92,20.92,0,0,0-1.9,3.911c-.172.493-.339,1.006-.474,1.531a8.218,8.218,0,0,0-.06,4.757,4.669,4.669,0,0,0,.281.656,3.952,3.952,0,0,0,1.915,1.742l.081.035a2.766,2.766,0,0,1-.066-.344,6.1,6.1,0,0,1,.742-3.439,21.853,21.853,0,0,1,2.668-3.866c.015-.018.029-.039.044-.057.7-.864,1.463-1.7,2.116-2.6a2.348,2.348,0,0,0-.032-2.561" transform="translate(-1149.229 -191.231)" fill="#1e439b"/><path d="M1324.946,25.354a15.977,15.977,0,0,0-.677-3.926,40.432,40.432,0,0,0-1.836-4.73c-.09-.2-.187-.409-.282-.611q-.935-2.021-2.036-3.965a69.876,69.876,0,0,0-4.036-6.187s0,0,0,0c-1.235-1.718-2.5-3.4-3.667-4.982-.312-.424-.737-1.107-1.342-.917a2.774,2.774,0,0,0-1.059.78,16.2,16.2,0,0,0-1.048,1.282c-.475.606-1.253,1.68-.6,2.425,1.721,1.976,7.5,8.733,10.431,15.185a18.785,18.785,0,0,1,1.991,7.929c0,.033,0,.071,0,.1-.17,5.009-2.365,7.745-4.173,9.158a10.211,10.211,0,0,1-6.234,2.16c-.051,0-.1,0-.148,0a7.168,7.168,0,0,0,1.845.2,13.63,13.63,0,0,0,9.143-3.959,13.152,13.152,0,0,0,3.754-9.238c0-.232-.015-.466-.024-.7" transform="translate(-1179.184 0)" fill="#1e439b"/><path d="M1182.326,76.014a20.106,20.106,0,0,0-1.776-7.636,20.332,20.332,0,0,0-4.5-6.3,20.083,20.083,0,0,0-6.447-4.143,18.572,18.572,0,0,0-2.923-.9c.068.084.134.171.2.26a18.01,18.01,0,0,1,2.639.853,19.287,19.287,0,1,1-14.8,0c.315-.131.636-.248.958-.359.042-.053.085-.105.13-.156s.065-.1.1-.15c-.43.138-.857.285-1.276.456a20.113,20.113,0,0,0-6.446,4.144,20.37,20.37,0,0,0-4.5,6.3,20.086,20.086,0,0,0-1.774,7.634,20.17,20.17,0,0,0,12.224,19.265,20.27,20.27,0,0,0,15.96,0,20.376,20.376,0,0,0,6.666-4.621,20.121,20.121,0,0,0,4.268-6.811,20.352,20.352,0,0,0,1.3-7.835" transform="translate(-1029.356 -51.413)" fill="#1e439b"/><path d="M11.153,66.905v4.118h2.54v7.138c0,2.745-.824,3.876-3.089,4.495l-1,.275L7.584,68.516C7.445,67.385,6.863,66.905,6,66.905H.205v4.118H2.778L4.631,84.3l-2.775.76L0,85.573l1,4.052,5.255-1.412,4.833-1.3c5.286-1.409,7.961-3.5,7.961-8.616V66.905Z" transform="translate(0 -60.311)" fill="#1e439b"/><path d="M233.269,83.376V73.628c0-4.975-1.852-6.724-7.035-6.724h-8.269v4.118H225.1c2.058,0,2.815.754,2.815,2.987v9.367h-9.952v4.118h17.877V83.376Z" transform="translate(-196.483 -60.31)" fill="#1e439b"/><path d="M435.855,66.905V79.533c0,2.573-1.27,3.843-3.979,3.843H425.6c-2.712,0-3.946-1.27-3.946-3.843V66.905h-5.216V80.049c0,4.941,2.745,7.445,8.408,7.445h7.789c5.663,0,8.444-2.5,8.444-7.445V66.905Z" transform="translate(-375.39 -60.311)" fill="#1e439b"/><path d="M514.962,66.905v11.53c0,.959.413,1.406,1.27,1.406h3.946V66.905Z" transform="translate(-464.208 -60.311)" fill="#1e439b"/><path d="M775.046,66.905v4.118h2.507v7.961H782.9V66.905Z" transform="translate(-698.659 -60.311)" fill="#1e439b"/><path d="M887.168,65.16c-3.466,0-5.249,1.168-6.863,4.872l-1.442-4.7h-5.285l3.637,10.673-3.5,9.916h5.421l4.908-13.931c.787-2.233,1.613-2.712,2.712-2.712,1.475,0,2.159.926,2.159,3.466V81.8h-5.077v4.118h10.293V73.363c0-6.04-2.435-8.2-6.966-8.2" transform="translate(-787.479 -58.738)" fill="#1e439b"/><path d="M3.427,341.267A1.644,1.644,0,0,0,1.7,342.5l-.365-1.187H0L.917,344l-.881,2.5H1.4l1.238-3.516c.2-.561.407-.683.682-.683.374,0,.546.235.546.876v2.285H2.587V346.5h2.6v-3.169c0-1.523-.615-2.068-1.76-2.068" transform="translate(0 -307.632)" fill="#1e439b"/><path d="M74.54,335.366l.466-2.439h-1.08l-.3,2.439Z" transform="translate(-66.372 -300.114)" fill="#1e439b"/><path d="M59.093,335.366l.46-2.439H58.479l-.294,2.439Z" transform="translate(-52.45 -300.114)" fill="#1e439b"/><path d="M94.224,341.689v1.038h.638v1.8c0,.694-.207.979-.777,1.137l-.252.068-.51-3.635c-.033-.288-.181-.409-.4-.409H91.462v1.038h.65l.466,3.353-1.169.318.252,1.024,2.546-.686c1.332-.353,2.009-.881,2.009-2.172v-2.875Z" transform="translate(-82.399 -308.013)" fill="#1e439b"/><path d="M150.252,345.846v-2.46c0-1.255-.469-1.7-1.777-1.7h-2.086v1.038h1.8c.519,0,.709.193.709.754v2.365h-2.51v1.039h4.51v-1.039Z" transform="translate(-131.96 -308.013)" fill="#1e439b"/><path d="M220.071,345.846v-2.46c0-1.255-.466-1.7-1.775-1.7H216.21v1.038h1.8c.519,0,.709.193.709.754v2.365h-2.51v1.039h4.51v-1.039Z" transform="translate(-194.901 -308.013)" fill="#1e439b"/><path d="M261.975,341.689v1.038h.691v4.158h1.35v-5.2Z" transform="translate(-236.155 -308.013)" fill="#1e439b"/><path d="M289.464,341.689v1.038h.632v2.009h1.35v-3.048Z" transform="translate(-260.935 -308.013)" fill="#1e439b"/><path d="M319.49,345.846v-2.46c0-1.255-.469-1.7-1.775-1.7h-2.086v1.038h1.8c.519,0,.709.193.709.754v2.365h-2.51v1.039h4.511v-1.039Z" transform="translate(-284.521 -308.013)" fill="#1e439b"/><path d="M361.6,333.79v-.864H360.31v1.9h2.528l-1.765,4.157h1.4l1.775-4.157V333.79Z" transform="translate(-324.798 -300.113)" fill="#1e439b"/><path d="M404.058,341.689v1.038h.691v4.158h1.35v-5.2Z" transform="translate(-364.235 -308.013)" fill="#1e439b"/><path d="M456.963,345.847h-2.018v-3.119h1.309c.484,0,.709.243.709.8Zm1.315,1.038V343.3c0-1.125-.5-1.611-1.644-1.611h-3.5v1.039h.5v4.157Z" transform="translate(-408.475 -308.014)" fill="#1e439b"/><path d="M509.528,341.689v1.038h.632v2.009h1.35v-3.048Z" transform="translate(-459.31 -308.013)" fill="#1e439b"/><path d="M537.8,341.267a1.646,1.646,0,0,0-1.733,1.229l-.362-1.187h-1.335l.92,2.694-.884,2.5h1.368l1.237-3.516c.2-.561.406-.683.686-.683.371,0,.543.235.543.876v2.285h-1.279V346.5h2.6v-3.169c0-1.523-.614-2.068-1.757-2.068" transform="translate(-481.701 -307.632)" fill="#1e439b"/><path d="M592.565,333.79v-.864h-1.291v1.9H593.8l-1.766,4.157h1.4l1.775-4.157V333.79Z" transform="translate(-532.999 -300.113)" fill="#1e439b"/><path d="M655.736,341.689v1.038h.632v2.009h1.35v-3.048Z" transform="translate(-591.108 -308.013)" fill="#1e439b"/><path d="M682.471,341.689H680.7v1.038h1.531c.65,0,.917.329.917,1.092v3.065H684.5v-3.246c0-1.359-.623-1.95-2.032-1.95" transform="translate(-613.609 -308.013)" fill="#1e439b"/><path d="M723.812,341.689v1.038h.692v4.158h1.35v-5.2Z" transform="translate(-652.474 -308.013)" fill="#1e439b"/><path d="M750.669,341.689v1.038h1.11c-.374.166-.65.781-.469,1.674l.519,2.484h1.326l-.555-2.694c-.208-1,.13-1.463.718-1.463h.433v-1.038Z" transform="translate(-676.684 -308.013)" fill="#1e439b"/><path d="M788.574,344.01v-2.32h-2.1v.988h.858v1.2c0,.362-.087.587-.372.587-.217,0-.329-.139-.5-.389l-1.582-2.383h-1.386l1.133,1.6a1.644,1.644,0,0,0-.5.059,1.1,1.1,0,0,0-.789,1.214v2.321h2.1V345.9h-.858V344.7c0-.365.089-.59.365-.59.216,0,.338.14.5.392l1.575,2.38h1.4l-1.143-1.6a1.442,1.442,0,0,0,.51-.059,1.1,1.1,0,0,0,.786-1.214" transform="translate(-706.133 -308.014)" fill="#1e439b"/><path d="M862.218,341.689v1.038h2.345v4.158h1.35v-4.158h.623v-1.038Z" transform="translate(-777.239 -308.013)" fill="#1e439b"/><path d="M909.888,341.689v1.038h.632v2.009h1.353v-3.048Z" transform="translate(-820.21 -308.013)" fill="#1e439b"/><path d="M936.43,344.954v-1.766c0-1.1-.374-1.5-1.358-1.5h-1.117v1.039h.7c.311,0,.425.139.425.522v1.125c0,.985-.294,1.314-1.143,1.314h-.329v1.2h.4a1.238,1.238,0,0,0,1.332-.961,3.72,3.72,0,0,0,.262.961h1.187a5.854,5.854,0,0,1-.357-1.932" transform="translate(-841.593 -308.014)" fill="#1e439b"/><path d="M975.366,344.01v-2.32h-2.1v.988h.858v1.2c0,.362-.086.587-.37.587-.217,0-.33-.139-.5-.389l-1.582-2.383h-1.385l1.133,1.6a1.653,1.653,0,0,0-.5.059,1.1,1.1,0,0,0-.789,1.214v2.321h2.1V345.9h-.857V344.7c0-.365.088-.59.364-.59.217,0,.338.14.5.392l1.576,2.38h1.4l-1.143-1.6a1.445,1.445,0,0,0,.51-.059,1.1,1.1,0,0,0,.786-1.214" transform="translate(-874.513 -308.014)" fill="#1e439b"/><path d="M1027.218,341.689v1.038h.632v3.119h-.9v1.039h1.828c.293,0,.424-.122.424-.4v-3.76h1.852v4.158h1.35v-5.2Z" transform="translate(-925.733 -308.013)" fill="#1e439b"/></g></svg>